# xmcd
#
# Track frame offsets:
#	150
#	11416
#	24419
#	34744
#	47126
#	62057
#	73587
#	85179
#	96687
#	106380
#	118261
#	128367
#	141192
#	151471
#	168849
#	197701
#
# Disc length: 3043 seconds
#
# Revision: 1
# Processed by: cddbd v1.5.2PL0 Copyright (c) Steve Scherf et al.
# Submitted via: audiograbber 1.83.01
#
DISCID=d70be110
DTITLE=Ray Charles - What I'd Say
DYEAR=1955
DGENRE=Oldies
TTITLE0=RAY CHARLES - THIS LITTLE GIRL OF MINE
TTITLE1=RAY CHARLES - HARD TIMES
TTITLE2=RAY CHARLES - A BIT OF SOUL
TTITLE3=RAY CHARLES - MARY ANN
TTITLE4=RAY CHARLES - DOWN IN MY OWN TEARS
TTITLE5=RAY CHARLES - HALLELUJA I LOVE HER SO
TTITLE6=RAY CHARLES - WHAT WOULD I DO WITHOUT YOU
TTITLE7=RAY CHARLES - LONELY AVENUE
TTITLE8=RAY CHARLES - I WANT TO KNOW
TTITLE9=RAY CHARLES - LEAVE MY WOMAN ALONE
TTITLE10=RAY CHARLES - IT'S ALRIGHT
TTITLE11=RAY CHARLES - AIN'T THAT LOVE
TTITLE12=RAY CHARLES - GET ON THE RIGHT TRACK
TTITLE13=RAY CHARLES - ROCKHOUSE PART 1&2
TTITLE14=RAY CHARLES - WHAT I'D SAY
TTITLE15=RAY CHARLES - GEORGIA ON MY MIND
EXTD=4 CD-Set "I got a woman" CD 1
EXTT0=
EXTT1=
EXTT2=
EXTT3=
EXTT4=
EXTT5=
EXTT6=
EXTT7=
EXTT8=
EXTT9=
EXTT10=
EXTT11=
EXTT12=
EXTT13=
EXTT14=
EXTT15=
PLAYORDER=
